<?xml version="1.0" encoding="utf-8"?>
<!-- Generator: Adobe Illustrator 26.1.0, SVG Export Plug-In . SVG Version: 6.00 Build 0)  -->
<svg version="1.1" id="Layer_1" xmlns="http://www.w3.org/2000/svg" xmlns:xlink="http://www.w3.org/1999/xlink" x="0px" y="0px"
	 viewBox="0 0 40 40" style="enable-background:new 0 0 40 40;" xml:space="preserve">
<style type="text/css">
	.st0{fill:#F9A72B;}
	.st1{fill:#FFBC1B;}
	.st2{fill:#E95F4A;}
	.st3{fill:#FFFFFF;}
</style>
<g>
	<g>
		<path class="st0" d="M23.9,30.5c0,0.9-1.7,1.6-3.8,1.6s-3.8-0.7-3.8-1.6c0-0.9,1.7-1.6,3.8-1.6S23.9,29.6,23.9,30.5"/>
	</g>
</g>
<path class="st1" d="M23.8,30.1c0,0.9-1.7,1.6-3.8,1.6s-3.8-0.7-3.8-1.6c0-0.9,1.7-1.6,3.8-1.6S23.8,29.3,23.8,30.1"/>
<g>
	<g>
		<path class="st2" d="M20.2,3.8c-0.1,0-0.1,0-0.2,0s-0.1,0-0.2,0c-4.7,0-8.5,3.8-8.5,8.6c0,0.8,0.3,2.7,0.8,3.4L20,30.1l7.8-14.4
			c0.5-0.8,0.8-2.6,0.8-3.4C28.7,7.6,24.9,3.8,20.2,3.8"/>
	</g>
</g>
<path class="st3" d="M24.7,11.4c0,2.5-2.1,4.5-4.7,4.5s-4.7-2-4.7-4.5s2.1-4.5,4.7-4.5S24.7,8.9,24.7,11.4"/>
</svg>
